<?xml version="1.0" encoding="UTF-8"?>
<svg xmlns="http://www.w3.org/2000/svg" version="1.1" width="100" height="100" viewBox="0 0 100 100"><rect x="0" y="0" width="100" height="100" fill="#ffffff"/><g transform="scale(3.448)"><g transform="translate(0,0)"><path fill-rule="evenodd" d="M8 0L8 3L9 3L9 4L10 4L10 7L11 7L11 4L10 4L10 3L11 3L11 2L10 2L10 1L11 1L11 0L10 0L10 1L9 1L9 0ZM13 0L13 1L15 1L15 2L16 2L16 3L17 3L17 2L18 2L18 3L19 3L19 4L18 4L18 7L19 7L19 8L18 8L18 9L19 9L19 8L20 8L20 9L24 9L24 10L23 10L23 11L21 11L21 10L20 10L20 11L21 11L21 12L20 12L20 13L19 13L19 15L20 15L20 16L22 16L22 17L20 17L20 18L18 18L18 19L19 19L19 22L17 22L17 21L18 21L18 20L15 20L15 19L17 19L17 18L15 18L15 17L16 17L16 16L17 16L17 17L19 17L19 16L18 16L18 12L19 12L19 10L17 10L17 9L12 9L12 8L9 8L9 5L8 5L8 9L9 9L9 11L10 11L10 12L9 12L9 13L8 13L8 10L6 10L6 9L7 9L7 8L6 8L6 9L5 9L5 8L2 8L2 9L1 9L1 10L0 10L0 11L2 11L2 12L0 12L0 14L1 14L1 15L0 15L0 16L1 16L1 15L2 15L2 17L0 17L0 21L1 21L1 18L3 18L3 19L4 19L4 20L2 20L2 21L5 21L5 20L6 20L6 21L7 21L7 20L8 20L8 22L9 22L9 23L10 23L10 22L11 22L11 24L10 24L10 26L11 26L11 27L12 27L12 29L13 29L13 27L12 27L12 23L14 23L14 25L13 25L13 26L14 26L14 28L15 28L15 29L16 29L16 28L15 28L15 26L16 26L16 27L17 27L17 26L18 26L18 28L20 28L20 26L22 26L22 27L21 27L21 28L22 28L22 27L23 27L23 29L25 29L25 28L24 28L24 27L25 27L25 26L22 26L22 25L25 25L25 24L26 24L26 25L27 25L27 24L29 24L29 23L27 23L27 22L29 22L29 19L27 19L27 18L28 18L28 16L29 16L29 13L28 13L28 11L29 11L29 8L26 8L26 9L27 9L27 10L25 10L25 9L24 9L24 8L21 8L21 5L20 5L20 7L19 7L19 4L20 4L20 3L21 3L21 2L20 2L20 1L21 1L21 0L20 0L20 1L19 1L19 0L18 0L18 1L16 1L16 0ZM18 1L18 2L19 2L19 1ZM13 2L13 3L14 3L14 2ZM12 4L12 7L13 7L13 8L15 8L15 6L16 6L16 8L17 8L17 6L16 6L16 5L17 5L17 4L16 4L16 5L15 5L15 4ZM13 6L13 7L14 7L14 6ZM4 9L4 10L3 10L3 11L4 11L4 12L2 12L2 13L3 13L3 14L2 14L2 15L3 15L3 14L4 14L4 13L5 13L5 15L4 15L4 16L3 16L3 18L4 18L4 19L6 19L6 20L7 20L7 19L8 19L8 20L9 20L9 21L10 21L10 20L11 20L11 18L12 18L12 19L13 19L13 20L12 20L12 22L13 22L13 20L14 20L14 19L15 19L15 18L14 18L14 19L13 19L13 17L15 17L15 16L16 16L16 15L17 15L17 11L16 11L16 10L15 10L15 12L16 12L16 13L14 13L14 14L15 14L15 16L11 16L11 14L10 14L10 13L11 13L11 12L10 12L10 13L9 13L9 14L8 14L8 15L6 15L6 14L7 14L7 13L5 13L5 12L7 12L7 11L6 11L6 10L5 10L5 9ZM10 9L10 11L11 11L11 9ZM4 10L4 11L5 11L5 10ZM13 10L13 11L12 11L12 13L13 13L13 11L14 11L14 10ZM27 10L27 11L25 11L25 12L24 12L24 11L23 11L23 12L24 12L24 14L23 14L23 13L21 13L21 15L22 15L22 14L23 14L23 15L25 15L25 16L26 16L26 17L24 17L24 16L23 16L23 17L22 17L22 18L20 18L20 19L24 19L24 20L27 20L27 19L25 19L25 18L27 18L27 16L26 16L26 14L27 14L27 15L28 15L28 13L26 13L26 12L27 12L27 11L28 11L28 10ZM25 13L25 14L26 14L26 13ZM4 16L4 17L5 17L5 18L6 18L6 19L7 19L7 18L6 18L6 17L7 17L7 16L6 16L6 17L5 17L5 16ZM9 16L9 17L8 17L8 19L9 19L9 20L10 20L10 18L11 18L11 16ZM23 17L23 18L24 18L24 17ZM14 21L14 23L15 23L15 22L16 22L16 21ZM21 21L21 24L24 24L24 21ZM26 21L26 22L25 22L25 23L26 23L26 22L27 22L27 21ZM19 22L19 23L16 23L16 24L15 24L15 25L16 25L16 24L18 24L18 26L20 26L20 24L19 24L19 23L20 23L20 22ZM22 22L22 23L23 23L23 22ZM8 24L8 27L9 27L9 28L10 28L10 29L11 29L11 28L10 28L10 27L9 27L9 24ZM27 26L27 27L28 27L28 28L29 28L29 27L28 27L28 26ZM0 0L0 7L7 7L7 0ZM1 1L1 6L6 6L6 1ZM2 2L2 5L5 5L5 2ZM22 0L22 7L29 7L29 0ZM23 1L23 6L28 6L28 1ZM24 2L24 5L27 5L27 2ZM0 22L0 29L7 29L7 22ZM1 23L1 28L6 28L6 23ZM2 24L2 27L5 27L5 24Z" fill="#000000"/></g></g></svg>
