<?xml version="1.0" encoding="UTF-8"?>
<svg xmlns="http://www.w3.org/2000/svg" version="1.1" width="100" height="100" viewBox="0 0 100 100"><rect x="0" y="0" width="100" height="100" fill="#ffffff"/><g transform="scale(2.703)"><g transform="translate(0,0)"><path fill-rule="evenodd" d="M9 0L9 1L8 1L8 2L10 2L10 1L12 1L12 2L11 2L11 3L9 3L9 5L8 5L8 8L4 8L4 10L2 10L2 9L0 9L0 10L2 10L2 11L0 11L0 14L1 14L1 15L0 15L0 16L1 16L1 15L2 15L2 14L3 14L3 15L4 15L4 14L3 14L3 13L4 13L4 12L5 12L5 11L4 11L4 10L5 10L5 9L8 9L8 8L9 8L9 10L10 10L10 8L13 8L13 10L12 10L12 11L14 11L14 9L15 9L15 8L13 8L13 6L14 6L14 7L15 7L15 6L14 6L14 5L13 5L13 1L14 1L14 3L15 3L15 5L16 5L16 8L17 8L17 5L18 5L18 7L19 7L19 5L18 5L18 4L19 4L19 2L18 2L18 3L15 3L15 1L18 1L18 0L13 0L13 1L12 1L12 0ZM22 0L22 1L20 1L20 4L21 4L21 2L22 2L22 1L23 1L23 0ZM24 0L24 2L25 2L25 1L27 1L27 2L28 2L28 3L27 3L27 5L26 5L26 3L25 3L25 4L23 4L23 5L22 5L22 7L21 7L21 6L20 6L20 7L21 7L21 8L20 8L20 13L21 13L21 14L22 14L22 15L21 15L21 18L23 18L23 20L22 20L22 19L21 19L21 21L20 21L20 17L19 17L19 16L17 16L17 15L15 15L15 16L17 16L17 18L16 18L16 19L15 19L15 17L14 17L14 19L12 19L12 20L14 20L14 21L13 21L13 24L12 24L12 23L11 23L11 25L10 25L10 26L11 26L11 28L10 28L10 27L9 27L9 24L10 24L10 23L8 23L8 22L9 22L9 20L10 20L10 21L11 21L11 22L12 22L12 21L11 21L11 18L13 18L13 17L12 17L12 16L13 16L13 15L14 15L14 14L15 14L15 13L16 13L16 11L15 11L15 12L14 12L14 14L13 14L13 13L11 13L11 11L9 11L9 12L8 12L8 10L6 10L6 11L7 11L7 12L6 12L6 13L9 13L9 12L10 12L10 14L9 14L9 15L7 15L7 14L6 14L6 15L7 15L7 16L3 16L3 17L0 17L0 19L2 19L2 20L1 20L1 22L2 22L2 20L3 20L3 21L4 21L4 20L3 20L3 19L2 19L2 18L4 18L4 19L5 19L5 21L7 21L7 22L6 22L6 23L7 23L7 24L4 24L4 25L3 25L3 24L2 24L2 23L1 23L1 24L0 24L0 26L5 26L5 27L3 27L3 29L4 29L4 28L5 28L5 29L8 29L8 33L10 33L10 34L9 34L9 35L10 35L10 36L9 36L9 37L12 37L12 35L11 35L11 34L13 34L13 35L14 35L14 34L16 34L16 35L15 35L15 36L16 36L16 37L20 37L20 35L19 35L19 36L18 36L18 34L16 34L16 33L14 33L14 34L13 34L13 33L10 33L10 32L11 32L11 31L12 31L12 32L16 32L16 31L17 31L17 32L18 32L18 33L20 33L20 34L21 34L21 35L22 35L22 33L23 33L23 31L24 31L24 32L25 32L25 33L24 33L24 34L23 34L23 36L22 36L22 37L23 37L23 36L24 36L24 35L25 35L25 36L27 36L27 33L28 33L28 35L30 35L30 34L31 34L31 33L32 33L32 37L33 37L33 35L34 35L34 33L33 33L33 32L34 32L34 29L35 29L35 30L36 30L36 31L35 31L35 35L36 35L36 36L35 36L35 37L37 37L37 35L36 35L36 34L37 34L37 30L36 30L36 29L37 29L37 27L36 27L36 26L37 26L37 23L35 23L35 24L32 24L32 23L34 23L34 22L33 22L33 21L34 21L34 20L37 20L37 19L34 19L34 17L36 17L36 18L37 18L37 15L36 15L36 13L37 13L37 11L36 11L36 10L37 10L37 9L36 9L36 8L35 8L35 9L36 9L36 10L35 10L35 11L34 11L34 9L32 9L32 8L30 8L30 10L33 10L33 11L34 11L34 13L35 13L35 15L34 15L34 14L32 14L32 15L29 15L29 14L28 14L28 15L29 15L29 17L28 17L28 18L27 18L27 15L26 15L26 13L23 13L23 12L24 12L24 11L22 11L22 10L21 10L21 9L22 9L22 7L23 7L23 10L24 10L24 8L25 8L25 12L26 12L26 9L27 9L27 6L28 6L28 8L29 8L29 6L28 6L28 5L29 5L29 4L28 4L28 3L29 3L29 1L28 1L28 0ZM10 4L10 6L9 6L9 8L10 8L10 6L11 6L11 7L12 7L12 4ZM16 4L16 5L17 5L17 4ZM23 5L23 7L24 7L24 6L25 6L25 8L26 8L26 6L25 6L25 5ZM16 9L16 10L17 10L17 9ZM18 9L18 10L19 10L19 9ZM28 9L28 11L29 11L29 9ZM2 11L2 13L1 13L1 14L2 14L2 13L3 13L3 12L4 12L4 11ZM18 11L18 12L17 12L17 14L19 14L19 15L20 15L20 14L19 14L19 11ZM21 11L21 13L22 13L22 11ZM30 11L30 12L27 12L27 13L30 13L30 14L31 14L31 13L32 13L32 12L31 12L31 11ZM35 11L35 13L36 13L36 11ZM10 14L10 15L11 15L11 14ZM23 14L23 16L22 16L22 17L24 17L24 19L25 19L25 20L24 20L24 21L25 21L25 22L24 22L24 23L23 23L23 24L20 24L20 23L22 23L22 22L23 22L23 21L21 21L21 22L19 22L19 23L18 23L18 20L17 20L17 19L18 19L18 18L17 18L17 19L16 19L16 20L17 20L17 23L16 23L16 24L18 24L18 25L16 25L16 26L15 26L15 25L14 25L14 24L13 24L13 25L12 25L12 26L13 26L13 27L12 27L12 28L11 28L11 29L12 29L12 30L14 30L14 31L15 31L15 29L16 29L16 30L17 30L17 31L18 31L18 32L20 32L20 33L22 33L22 32L20 32L20 30L24 30L24 29L19 29L19 28L18 28L18 27L19 27L19 26L21 26L21 25L22 25L22 26L23 26L23 28L24 28L24 27L25 27L25 25L23 25L23 24L24 24L24 23L25 23L25 22L27 22L27 23L26 23L26 25L27 25L27 26L28 26L28 27L29 27L29 28L30 28L30 27L31 27L31 28L35 28L35 29L36 29L36 27L35 27L35 26L36 26L36 25L33 25L33 26L34 26L34 27L31 27L31 26L30 26L30 25L32 25L32 24L30 24L30 25L28 25L28 23L30 23L30 22L32 22L32 21L29 21L29 20L30 20L30 19L32 19L32 20L33 20L33 19L32 19L32 18L33 18L33 17L32 17L32 18L31 18L31 16L30 16L30 18L28 18L28 19L25 19L25 17L24 17L24 15L25 15L25 14ZM32 15L32 16L33 16L33 15ZM7 16L7 17L4 17L4 18L7 18L7 17L8 17L8 19L6 19L6 20L7 20L7 21L8 21L8 19L9 19L9 18L11 18L11 16L10 16L10 17L9 17L9 16ZM14 19L14 20L15 20L15 19ZM25 20L25 21L26 21L26 20ZM14 21L14 23L15 23L15 21ZM27 21L27 22L28 22L28 21ZM36 21L36 22L37 22L37 21ZM3 22L3 23L5 23L5 22ZM1 24L1 25L2 25L2 24ZM19 24L19 25L20 25L20 24ZM5 25L5 26L8 26L8 25ZM14 26L14 27L15 27L15 28L17 28L17 26L16 26L16 27L15 27L15 26ZM5 27L5 28L7 28L7 27ZM8 27L8 29L9 29L9 30L10 30L10 31L9 31L9 32L10 32L10 31L11 31L11 30L10 30L10 28L9 28L9 27ZM20 27L20 28L21 28L21 27ZM26 27L26 29L28 29L28 28L27 28L27 27ZM0 28L0 29L2 29L2 28ZM12 28L12 29L14 29L14 28ZM18 29L18 31L19 31L19 29ZM29 29L29 32L32 32L32 29ZM26 30L26 31L25 31L25 32L26 32L26 31L27 31L27 32L28 32L28 30ZM30 30L30 31L31 31L31 30ZM29 33L29 34L30 34L30 33ZM25 34L25 35L26 35L26 34ZM16 35L16 36L17 36L17 35ZM29 36L29 37L30 37L30 36ZM0 0L0 7L7 7L7 0ZM1 1L1 6L6 6L6 1ZM2 2L2 5L5 5L5 2ZM30 0L30 7L37 7L37 0ZM31 1L31 6L36 6L36 1ZM32 2L32 5L35 5L35 2ZM0 30L0 37L7 37L7 30ZM1 31L1 36L6 36L6 31ZM2 32L2 35L5 35L5 32Z" fill="#000000"/></g></g></svg>
