<?xml version="1.0" encoding="UTF-8"?>
<svg xmlns="http://www.w3.org/2000/svg" version="1.1" width="100" height="100" viewBox="0 0 100 100"><rect x="0" y="0" width="100" height="100" fill="#ffffff"/><g transform="scale(3.03)"><g transform="translate(0,0)"><path fill-rule="evenodd" d="M8 0L8 3L9 3L9 4L10 4L10 2L11 2L11 1L13 1L13 2L12 2L12 3L13 3L13 6L12 6L12 7L11 7L11 6L10 6L10 8L11 8L11 10L10 10L10 9L9 9L9 5L8 5L8 9L9 9L9 10L10 10L10 11L11 11L11 12L12 12L12 11L13 11L13 13L11 13L11 15L9 15L9 16L10 16L10 17L9 17L9 21L7 21L7 20L8 20L8 15L7 15L7 14L10 14L10 13L9 13L9 11L8 11L8 12L4 12L4 13L3 13L3 14L2 14L2 12L3 12L3 11L1 11L1 13L0 13L0 15L1 15L1 16L0 16L0 17L1 17L1 16L2 16L2 18L3 18L3 19L1 19L1 18L0 18L0 25L1 25L1 20L2 20L2 23L4 23L4 24L2 24L2 25L4 25L4 24L6 24L6 25L8 25L8 26L12 26L12 28L13 28L13 29L11 29L11 28L8 28L8 31L10 31L10 32L9 32L9 33L13 33L13 32L14 32L14 31L15 31L15 32L16 32L16 33L17 33L17 32L19 32L19 30L20 30L20 31L21 31L21 32L20 32L20 33L21 33L21 32L22 32L22 31L23 31L23 32L24 32L24 33L27 33L27 32L28 32L28 33L29 33L29 31L30 31L30 33L32 33L32 32L31 32L31 31L30 31L30 30L32 30L32 29L33 29L33 27L32 27L32 26L33 26L33 25L32 25L32 24L31 24L31 22L33 22L33 20L31 20L31 19L32 19L32 18L33 18L33 16L31 16L31 15L32 15L32 14L33 14L33 13L32 13L32 12L33 12L33 11L32 11L32 10L33 10L33 8L30 8L30 9L29 9L29 10L27 10L27 9L28 9L28 8L25 8L25 6L24 6L24 8L25 8L25 9L26 9L26 10L24 10L24 9L23 9L23 4L19 4L19 2L20 2L20 1L19 1L19 0L16 0L16 3L18 3L18 7L17 7L17 6L16 6L16 5L15 5L15 4L14 4L14 3L15 3L15 2L14 2L14 1L15 1L15 0L14 0L14 1L13 1L13 0ZM21 0L21 1L22 1L22 0ZM23 0L23 1L24 1L24 0ZM17 1L17 2L19 2L19 1ZM21 2L21 3L22 3L22 2ZM23 2L23 3L25 3L25 2ZM11 4L11 5L12 5L12 4ZM24 4L24 5L25 5L25 4ZM14 5L14 6L13 6L13 8L12 8L12 10L11 10L11 11L12 11L12 10L14 10L14 11L15 11L15 15L14 15L14 16L13 16L13 15L11 15L11 18L14 18L14 20L13 20L13 21L14 21L14 22L13 22L13 23L17 23L17 22L18 22L18 24L16 24L16 25L17 25L17 28L16 28L16 26L15 26L15 24L14 24L14 27L13 27L13 28L14 28L14 29L13 29L13 30L11 30L11 29L10 29L10 31L13 31L13 30L15 30L15 28L16 28L16 30L17 30L17 31L18 31L18 28L19 28L19 27L20 27L20 30L21 30L21 31L22 31L22 29L24 29L24 32L25 32L25 31L26 31L26 30L27 30L27 31L29 31L29 30L30 30L30 29L31 29L31 28L30 28L30 27L31 27L31 26L29 26L29 28L30 28L30 29L29 29L29 30L28 30L28 29L26 29L26 30L25 30L25 29L24 29L24 28L22 28L22 29L21 29L21 27L20 27L20 26L21 26L21 25L22 25L22 27L23 27L23 25L22 25L22 24L23 24L23 22L25 22L25 21L26 21L26 22L27 22L27 24L29 24L29 25L31 25L31 24L29 24L29 22L31 22L31 20L29 20L29 19L28 19L28 18L32 18L32 17L31 17L31 16L29 16L29 17L28 17L28 15L26 15L26 13L27 13L27 14L28 14L28 13L29 13L29 14L32 14L32 13L31 13L31 12L32 12L32 11L31 11L31 12L30 12L30 11L27 11L27 10L26 10L26 11L27 11L27 12L24 12L24 10L23 10L23 9L22 9L22 8L21 8L21 7L22 7L22 6L21 6L21 5L20 5L20 6L19 6L19 8L20 8L20 10L21 10L21 12L20 12L20 14L18 14L18 13L19 13L19 10L14 10L14 9L13 9L13 8L15 8L15 9L16 9L16 6L15 6L15 5ZM14 6L14 7L15 7L15 6ZM20 6L20 7L21 7L21 6ZM2 8L2 9L3 9L3 10L4 10L4 11L5 11L5 8ZM6 8L6 9L7 9L7 8ZM17 8L17 9L18 9L18 8ZM31 9L31 10L32 10L32 9ZM6 10L6 11L7 11L7 10ZM22 10L22 11L23 11L23 10ZM17 11L17 12L16 12L16 13L17 13L17 12L18 12L18 11ZM21 12L21 17L20 17L20 18L15 18L15 19L16 19L16 21L15 21L15 22L16 22L16 21L19 21L19 20L20 20L20 22L23 22L23 21L25 21L25 20L26 20L26 19L24 19L24 20L23 20L23 19L21 19L21 18L24 18L24 17L25 17L25 15L24 15L24 17L23 17L23 14L25 14L25 13L23 13L23 12ZM27 12L27 13L28 13L28 12ZM29 12L29 13L30 13L30 12ZM4 13L4 14L5 14L5 16L3 16L3 18L4 18L4 20L3 20L3 22L4 22L4 23L6 23L6 24L8 24L8 25L13 25L13 24L9 24L9 23L10 23L10 21L11 21L11 23L12 23L12 21L11 21L11 19L10 19L10 21L9 21L9 22L8 22L8 23L6 23L6 22L7 22L7 21L6 21L6 20L7 20L7 19L6 19L6 18L7 18L7 17L6 17L6 16L7 16L7 15L6 15L6 14L7 14L7 13ZM13 13L13 14L14 14L14 13ZM22 13L22 14L23 14L23 13ZM17 14L17 15L16 15L16 16L14 16L14 17L17 17L17 16L18 16L18 14ZM19 15L19 16L20 16L20 15ZM12 16L12 17L13 17L13 16ZM4 17L4 18L6 18L6 17ZM26 17L26 18L28 18L28 17ZM17 19L17 20L18 20L18 19ZM20 19L20 20L21 20L21 21L23 21L23 20L21 20L21 19ZM4 20L4 21L5 21L5 22L6 22L6 21L5 21L5 20ZM28 20L28 21L29 21L29 20ZM19 23L19 24L20 24L20 25L21 25L21 24L22 24L22 23L21 23L21 24L20 24L20 23ZM24 23L24 24L25 24L25 23ZM18 25L18 27L19 27L19 25ZM25 25L25 28L28 28L28 25ZM26 26L26 27L27 27L27 26ZM0 0L0 7L7 7L7 0ZM1 1L1 6L6 6L6 1ZM2 2L2 5L5 5L5 2ZM26 0L26 7L33 7L33 0ZM27 1L27 6L32 6L32 1ZM28 2L28 5L31 5L31 2ZM0 26L0 33L7 33L7 26ZM1 27L1 32L6 32L6 27ZM2 28L2 31L5 31L5 28Z" fill="#000000"/></g></g></svg>
