<?xml version="1.0" encoding="UTF-8"?>
<svg xmlns="http://www.w3.org/2000/svg" version="1.1" width="100" height="100" viewBox="0 0 100 100"><rect x="0" y="0" width="100" height="100" fill="#ffffff"/><g transform="scale(3.448)"><g transform="translate(0,0)"><path fill-rule="evenodd" d="M9 0L9 1L8 1L8 2L9 2L9 1L10 1L10 3L9 3L9 5L8 5L8 8L4 8L4 9L8 9L8 8L10 8L10 7L11 7L11 6L12 6L12 7L13 7L13 6L14 6L14 7L15 7L15 8L14 8L14 9L15 9L15 10L14 10L14 12L13 12L13 11L12 11L12 10L13 10L13 8L12 8L12 10L11 10L11 9L9 9L9 10L8 10L8 11L9 11L9 12L8 12L8 13L7 13L7 12L6 12L6 11L7 11L7 10L3 10L3 9L2 9L2 11L1 11L1 13L0 13L0 14L1 14L1 15L0 15L0 16L1 16L1 17L0 17L0 18L1 18L1 17L2 17L2 19L3 19L3 20L0 20L0 21L3 21L3 20L4 20L4 21L8 21L8 25L9 25L9 24L10 24L10 22L12 22L12 23L11 23L11 25L10 25L10 26L9 26L9 27L10 27L10 28L11 28L11 29L16 29L16 28L14 28L14 27L16 27L16 26L18 26L18 27L17 27L17 28L18 28L18 27L19 27L19 29L22 29L22 28L23 28L23 29L25 29L25 27L29 27L29 26L28 26L28 23L29 23L29 20L28 20L28 19L29 19L29 18L28 18L28 19L27 19L27 16L28 16L28 15L27 15L27 14L29 14L29 13L27 13L27 12L26 12L26 17L25 17L25 16L24 16L24 17L23 17L23 16L22 16L22 15L21 15L21 14L22 14L22 13L23 13L23 15L25 15L25 14L24 14L24 10L25 10L25 11L28 11L28 12L29 12L29 10L27 10L27 9L28 9L28 8L27 8L27 9L24 9L24 8L22 8L22 9L24 9L24 10L22 10L22 11L21 11L21 9L20 9L20 8L21 8L21 6L20 6L20 5L21 5L21 4L20 4L20 3L21 3L21 1L20 1L20 0L18 0L18 1L17 1L17 0L12 0L12 2L11 2L11 0ZM18 1L18 3L19 3L19 2L20 2L20 1ZM16 2L16 3L10 3L10 5L12 5L12 6L13 6L13 5L16 5L16 6L15 6L15 7L16 7L16 8L15 8L15 9L17 9L17 10L19 10L19 12L18 12L18 11L16 11L16 10L15 10L15 12L14 12L14 13L13 13L13 14L12 14L12 17L13 17L13 18L12 18L12 19L11 19L11 17L10 17L10 16L11 16L11 14L10 14L10 13L8 13L8 15L9 15L9 16L7 16L7 15L6 15L6 16L7 16L7 17L5 17L5 14L7 14L7 13L6 13L6 12L5 12L5 11L3 11L3 12L2 12L2 13L3 13L3 14L4 14L4 15L2 15L2 16L4 16L4 17L3 17L3 19L5 19L5 20L8 20L8 19L6 19L6 18L8 18L8 17L10 17L10 19L9 19L9 20L10 20L10 19L11 19L11 21L12 21L12 22L13 22L13 23L12 23L12 25L11 25L11 28L13 28L13 27L12 27L12 26L14 26L14 25L15 25L15 26L16 26L16 25L19 25L19 23L20 23L20 20L19 20L19 18L18 18L18 17L19 17L19 16L20 16L20 15L19 15L19 16L18 16L18 13L19 13L19 14L21 14L21 13L22 13L22 12L23 12L23 11L22 11L22 12L21 12L21 11L20 11L20 10L19 10L19 9L18 9L18 8L17 8L17 7L18 7L18 4L16 4L16 3L17 3L17 2ZM9 6L9 7L10 7L10 6ZM16 6L16 7L17 7L17 6ZM19 6L19 7L20 7L20 6ZM0 9L0 10L1 10L1 9ZM9 10L9 11L10 11L10 12L11 12L11 13L12 13L12 12L11 12L11 10ZM3 12L3 13L4 13L4 14L5 14L5 13L4 13L4 12ZM16 12L16 13L15 13L15 14L16 14L16 15L17 15L17 14L16 14L16 13L17 13L17 12ZM19 12L19 13L20 13L20 12ZM9 14L9 15L10 15L10 14ZM13 15L13 16L15 16L15 17L16 17L16 18L14 18L14 20L12 20L12 21L14 21L14 20L15 20L15 19L18 19L18 18L17 18L17 17L18 17L18 16L15 16L15 15ZM20 17L20 19L22 19L22 20L23 20L23 19L24 19L24 20L26 20L26 21L25 21L25 23L26 23L26 21L27 21L27 23L28 23L28 20L27 20L27 19L24 19L24 18L23 18L23 17ZM22 18L22 19L23 19L23 18ZM17 20L17 21L18 21L18 22L16 22L16 21L15 21L15 22L14 22L14 23L13 23L13 24L18 24L18 22L19 22L19 20ZM9 21L9 22L10 22L10 21ZM21 21L21 24L24 24L24 21ZM15 22L15 23L16 23L16 22ZM22 22L22 23L23 23L23 22ZM26 24L26 25L27 25L27 24ZM20 25L20 28L21 28L21 27L23 27L23 28L24 28L24 27L25 27L25 25ZM27 28L27 29L28 29L28 28ZM0 0L0 7L7 7L7 0ZM1 1L1 6L6 6L6 1ZM2 2L2 5L5 5L5 2ZM22 0L22 7L29 7L29 0ZM23 1L23 6L28 6L28 1ZM24 2L24 5L27 5L27 2ZM0 22L0 29L7 29L7 22ZM1 23L1 28L6 28L6 23ZM2 24L2 27L5 27L5 24Z" fill="#000000"/></g></g></svg>
