<?xml version="1.0" encoding="UTF-8"?>
<svg xmlns="http://www.w3.org/2000/svg" version="1.1" width="100" height="100" viewBox="0 0 100 100"><rect x="0" y="0" width="100" height="100" fill="#ffffff"/><g transform="scale(2.439)"><g transform="translate(0,0)"><path fill-rule="evenodd" d="M8 0L8 1L13 1L13 2L14 2L14 3L11 3L11 2L8 2L8 3L11 3L11 4L8 4L8 5L11 5L11 6L10 6L10 7L9 7L9 6L8 6L8 8L9 8L9 9L8 9L8 10L6 10L6 9L7 9L7 8L5 8L5 10L4 10L4 9L3 9L3 10L2 10L2 11L1 11L1 10L0 10L0 12L2 12L2 11L3 11L3 10L4 10L4 12L3 12L3 15L2 15L2 13L1 13L1 15L2 15L2 16L1 16L1 18L0 18L0 20L1 20L1 21L0 21L0 22L1 22L1 24L0 24L0 26L1 26L1 27L0 27L0 33L1 33L1 31L3 31L3 32L4 32L4 31L7 31L7 32L6 32L6 33L7 33L7 32L8 32L8 31L9 31L9 32L10 32L10 31L11 31L11 33L10 33L10 34L9 34L9 33L8 33L8 34L9 34L9 35L8 35L8 36L9 36L9 37L10 37L10 38L9 38L9 39L10 39L10 41L11 41L11 40L12 40L12 41L13 41L13 40L14 40L14 41L15 41L15 40L16 40L16 41L18 41L18 40L19 40L19 41L20 41L20 40L19 40L19 39L21 39L21 37L22 37L22 39L23 39L23 41L24 41L24 39L25 39L25 38L24 38L24 37L26 37L26 38L27 38L27 39L26 39L26 40L25 40L25 41L26 41L26 40L28 40L28 39L29 39L29 37L32 37L32 38L30 38L30 39L32 39L32 38L33 38L33 39L34 39L34 40L33 40L33 41L34 41L34 40L35 40L35 41L37 41L37 38L38 38L38 34L37 34L37 33L39 33L39 34L40 34L40 33L39 33L39 32L40 32L40 31L41 31L41 30L40 30L40 28L41 28L41 27L40 27L40 28L39 28L39 27L37 27L37 26L38 26L38 22L37 22L37 25L35 25L35 24L36 24L36 23L35 23L35 22L36 22L36 21L37 21L37 20L38 20L38 21L40 21L40 20L41 20L41 16L40 16L40 15L38 15L38 16L37 16L37 14L38 14L38 13L36 13L36 16L35 16L35 17L34 17L34 16L33 16L33 17L32 17L32 14L33 14L33 15L35 15L35 14L34 14L34 13L35 13L35 12L38 12L38 11L36 11L36 10L37 10L37 8L36 8L36 10L35 10L35 12L34 12L34 10L33 10L33 11L32 11L32 14L31 14L31 15L30 15L30 14L27 14L27 12L25 12L25 11L26 11L26 10L25 10L25 9L27 9L27 11L28 11L28 7L29 7L29 6L30 6L30 7L31 7L31 6L30 6L30 4L31 4L31 5L32 5L32 7L33 7L33 2L32 2L32 4L31 4L31 3L30 3L30 4L29 4L29 1L30 1L30 2L31 2L31 0L29 0L29 1L28 1L28 3L27 3L27 4L28 4L28 7L27 7L27 5L26 5L26 4L25 4L25 3L26 3L26 2L27 2L27 1L25 1L25 0L23 0L23 1L22 1L22 2L21 2L21 0L20 0L20 1L18 1L18 0L15 0L15 1L17 1L17 2L20 2L20 3L21 3L21 4L18 4L18 5L17 5L17 3L16 3L16 5L15 5L15 6L14 6L14 4L15 4L15 2L14 2L14 1L13 1L13 0ZM23 1L23 2L24 2L24 1ZM23 3L23 4L22 4L22 5L20 5L20 6L19 6L19 5L18 5L18 6L17 6L17 5L16 5L16 6L15 6L15 7L16 7L16 6L17 6L17 7L18 7L18 6L19 6L19 7L20 7L20 8L21 8L21 9L18 9L18 8L16 8L16 12L18 12L18 13L17 13L17 16L16 16L16 13L15 13L15 12L14 12L14 13L12 13L12 11L11 11L11 10L10 10L10 9L9 9L9 10L8 10L8 11L9 11L9 12L10 12L10 11L11 11L11 13L8 13L8 14L9 14L9 15L10 15L10 16L11 16L11 14L12 14L12 15L14 15L14 14L15 14L15 16L14 16L14 17L12 17L12 18L14 18L14 17L15 17L15 18L16 18L16 17L18 17L18 18L20 18L20 17L19 17L19 16L18 16L18 13L19 13L19 14L20 14L20 13L21 13L21 15L20 15L20 16L21 16L21 15L23 15L23 14L22 14L22 13L21 13L21 10L23 10L23 8L24 8L24 9L25 9L25 8L24 8L24 6L23 6L23 8L21 8L21 7L22 7L22 5L23 5L23 4L24 4L24 3ZM11 4L11 5L12 5L12 6L11 6L11 7L10 7L10 8L11 8L11 9L12 9L12 8L13 8L13 9L14 9L14 10L13 10L13 11L15 11L15 8L14 8L14 6L13 6L13 5L12 5L12 4ZM12 6L12 7L11 7L11 8L12 8L12 7L13 7L13 6ZM20 6L20 7L21 7L21 6ZM25 6L25 7L26 7L26 8L27 8L27 7L26 7L26 6ZM29 8L29 11L30 11L30 12L31 12L31 11L30 11L30 10L32 10L32 8L31 8L31 9L30 9L30 8ZM34 8L34 9L35 9L35 8ZM38 8L38 9L39 9L39 8ZM40 8L40 9L41 9L41 8ZM9 10L9 11L10 11L10 10ZM19 10L19 11L18 11L18 12L19 12L19 13L20 13L20 12L19 12L19 11L20 11L20 10ZM24 10L24 11L22 11L22 12L23 12L23 13L24 13L24 11L25 11L25 10ZM6 11L6 12L5 12L5 13L4 13L4 15L3 15L3 16L2 16L2 17L3 17L3 18L4 18L4 19L5 19L5 20L2 20L2 18L1 18L1 20L2 20L2 21L1 21L1 22L3 22L3 23L2 23L2 24L1 24L1 25L2 25L2 24L3 24L3 25L5 25L5 24L7 24L7 25L6 25L6 26L7 26L7 25L8 25L8 26L11 26L11 27L12 27L12 25L13 25L13 26L14 26L14 24L15 24L15 25L16 25L16 24L17 24L17 26L16 26L16 28L15 28L15 27L14 27L14 28L15 28L15 29L16 29L16 30L17 30L17 31L18 31L18 28L17 28L17 26L19 26L19 27L20 27L20 25L21 25L21 28L20 28L20 29L19 29L19 30L20 30L20 31L21 31L21 32L22 32L22 31L23 31L23 32L25 32L25 30L27 30L27 31L26 31L26 32L27 32L27 33L26 33L26 34L27 34L27 33L28 33L28 35L26 35L26 37L27 37L27 36L28 36L28 35L29 35L29 36L31 36L31 35L30 35L30 33L32 33L32 32L33 32L33 31L35 31L35 32L39 32L39 31L40 31L40 30L38 30L38 29L37 29L37 28L36 28L36 29L34 29L34 28L35 28L35 27L34 27L34 24L33 24L33 27L32 27L32 26L30 26L30 25L32 25L32 24L31 24L31 23L32 23L32 22L33 22L33 23L34 23L34 22L35 22L35 21L36 21L36 19L33 19L33 18L34 18L34 17L33 17L33 18L32 18L32 20L28 20L28 22L30 22L30 21L32 21L32 22L31 22L31 23L27 23L27 22L26 22L26 21L27 21L27 20L26 20L26 19L24 19L24 20L23 20L23 23L24 23L24 26L23 26L23 24L22 24L22 22L21 22L21 24L20 24L20 22L19 22L19 23L18 23L18 20L17 20L17 22L16 22L16 19L15 19L15 21L14 21L14 22L13 22L13 21L12 21L12 19L11 19L11 17L10 17L10 19L8 19L8 18L9 18L9 17L8 17L8 18L7 18L7 17L6 17L6 18L5 18L5 17L4 17L4 15L6 15L6 16L7 16L7 15L6 15L6 14L7 14L7 13L6 13L6 12L7 12L7 11ZM39 11L39 14L41 14L41 12L40 12L40 11ZM25 13L25 14L24 14L24 15L25 15L25 16L24 16L24 17L23 17L23 16L22 16L22 18L21 18L21 19L19 19L19 20L21 20L21 19L23 19L23 18L24 18L24 17L25 17L25 18L26 18L26 16L28 16L28 18L29 18L29 19L31 19L31 16L30 16L30 15L29 15L29 16L28 16L28 15L25 15L25 14L26 14L26 13ZM29 16L29 18L30 18L30 16ZM36 16L36 17L35 17L35 18L36 18L36 17L37 17L37 16ZM39 16L39 17L38 17L38 20L39 20L39 19L40 19L40 18L39 18L39 17L40 17L40 16ZM6 18L6 19L7 19L7 18ZM10 19L10 20L8 20L8 21L7 21L7 20L6 20L6 21L3 21L3 22L4 22L4 24L5 24L5 23L7 23L7 24L8 24L8 25L9 25L9 24L10 24L10 25L11 25L11 21L10 21L10 20L11 20L11 19ZM24 20L24 21L26 21L26 20ZM33 20L33 22L34 22L34 20ZM6 21L6 22L7 22L7 23L8 23L8 24L9 24L9 22L7 22L7 21ZM12 22L12 23L13 23L13 24L14 24L14 23L13 23L13 22ZM15 22L15 23L16 23L16 22ZM24 22L24 23L25 23L25 24L26 24L26 25L27 25L27 27L26 27L26 28L24 28L24 27L25 27L25 26L24 26L24 27L23 27L23 28L24 28L24 29L23 29L23 31L24 31L24 30L25 30L25 29L27 29L27 27L28 27L28 26L29 26L29 27L30 27L30 28L29 28L29 29L28 29L28 31L27 31L27 32L29 32L29 33L30 33L30 32L29 32L29 29L30 29L30 31L32 31L32 30L31 30L31 29L33 29L33 28L32 28L32 27L30 27L30 26L29 26L29 24L28 24L28 25L27 25L27 24L26 24L26 22ZM17 23L17 24L18 24L18 25L20 25L20 24L18 24L18 23ZM39 23L39 24L41 24L41 23ZM21 24L21 25L22 25L22 24ZM40 25L40 26L41 26L41 25ZM2 26L2 27L1 27L1 29L2 29L2 30L3 30L3 29L4 29L4 30L7 30L7 31L8 31L8 29L6 29L6 28L7 28L7 27L6 27L6 28L5 28L5 26ZM8 27L8 28L9 28L9 27ZM2 28L2 29L3 29L3 28ZM4 28L4 29L5 29L5 28ZM11 28L11 29L10 29L10 30L9 30L9 31L10 31L10 30L11 30L11 31L13 31L13 32L12 32L12 33L11 33L11 34L10 34L10 35L9 35L9 36L11 36L11 38L10 38L10 39L12 39L12 40L13 40L13 39L14 39L14 40L15 40L15 39L16 39L16 40L18 40L18 39L17 39L17 38L16 38L16 37L18 37L18 38L19 38L19 36L20 36L20 37L21 37L21 36L20 36L20 35L21 35L21 34L20 34L20 32L17 32L17 33L16 33L16 31L15 31L15 30L13 30L13 29L12 29L12 28ZM30 28L30 29L31 29L31 28ZM11 29L11 30L12 30L12 29ZM36 29L36 30L35 30L35 31L38 31L38 30L37 30L37 29ZM13 32L13 33L14 33L14 34L16 34L16 33L15 33L15 32ZM17 33L17 34L18 34L18 35L17 35L17 36L19 36L19 35L20 35L20 34L19 34L19 33ZM33 33L33 36L36 36L36 33ZM11 34L11 35L13 35L13 34ZM22 34L22 35L23 35L23 36L24 36L24 35L23 35L23 34ZM34 34L34 35L35 35L35 34ZM14 35L14 36L13 36L13 37L15 37L15 36L16 36L16 35ZM39 35L39 36L41 36L41 35ZM33 37L33 38L35 38L35 37ZM36 37L36 38L37 38L37 37ZM40 37L40 38L39 38L39 39L38 39L38 40L39 40L39 39L40 39L40 40L41 40L41 39L40 39L40 38L41 38L41 37ZM14 38L14 39L15 39L15 38ZM23 38L23 39L24 39L24 38ZM35 39L35 40L36 40L36 39ZM29 40L29 41L30 41L30 40ZM0 0L0 7L7 7L7 0ZM1 1L1 6L6 6L6 1ZM2 2L2 5L5 5L5 2ZM34 0L34 7L41 7L41 0ZM35 1L35 6L40 6L40 1ZM36 2L36 5L39 5L39 2ZM0 34L0 41L7 41L7 34ZM1 35L1 40L6 40L6 35ZM2 36L2 39L5 39L5 36Z" fill="#000000"/></g></g></svg>
